<svg version="1.1" id="Layer_1" xmlns="http://www.w3.org/2000/svg" xmlns:xlink="http://www.w3.org/1999/xlink" x="0px" y="0px"
	 width="100%" viewBox="0 0 500 500" enable-background="new 0 0 500 500" xml:space="preserve">
<path fill="#FFFEFE" opacity="1.000000" stroke="none" 
	d="
M233.000000,501.000000 
	C155.333359,501.000000 78.166702,501.000000 1.000041,501.000000 
	C1.000028,334.333405 1.000028,167.666779 1.000014,1.000131 
	C167.666565,1.000087 334.333130,1.000087 500.999756,1.000044 
	C500.999847,167.666519 500.999847,334.333038 500.999939,500.999786 
	C411.833344,501.000000 322.666656,501.000000 233.000000,501.000000 
M112.922150,342.759369 
	C123.993263,341.966064 135.167542,341.846161 146.103485,340.170593 
	C155.172501,338.781128 160.251099,330.805511 158.501129,323.354156 
	C156.427750,314.525726 149.003494,310.393799 139.505249,311.563751 
	C130.810455,312.634735 121.748970,314.042755 113.237892,312.747437 
	C62.346588,305.002228 38.796555,253.533707 58.761532,212.883774 
	C65.965279,198.216476 76.889198,187.331772 91.807365,180.068344 
	C93.184807,181.546356 94.307938,182.766724 95.447304,183.971725 
	C107.690025,196.919754 119.930504,209.869934 132.181976,222.809692 
	C138.058426,229.016296 145.529831,230.737900 151.868561,225.800613 
	C159.972260,219.488525 167.655502,212.473450 174.650162,204.952423 
	C180.225021,198.958054 178.075317,189.741821 170.933578,185.055771 
	C169.408600,186.446869 167.812897,187.882751 166.238708,189.341812 
	C159.153366,195.908905 152.093628,202.503799 144.983261,209.043640 
	C142.047684,211.743668 138.680099,212.660873 135.801575,209.343140 
	C133.095322,206.223969 134.427170,203.214706 137.245605,200.640228 
	C142.165802,196.145935 147.027771,191.587479 151.886597,187.026566 
	C155.719162,183.428986 159.510345,179.787338 163.540405,175.955597 
	C142.838593,153.947617 122.762680,132.372620 102.389168,111.082413 
	C95.964561,104.368729 87.361412,104.867226 80.087059,111.488358 
	C74.671341,116.417763 69.336784,121.436302 63.923676,126.368607 
	C56.219692,133.388306 55.878651,141.807327 63.020767,149.568268 
	C65.437263,152.194138 67.819786,154.851288 70.371185,157.663147 
	C68.775978,158.809021 67.706886,159.578430 66.636314,160.345779 
	C32.599674,184.741776 17.163588,217.572342 23.248871,259.281250 
	C27.126076,285.855865 40.901836,307.044678 62.418812,323.129395 
	C77.163948,334.151947 93.871796,340.226654 112.922150,342.759369 
M101.500000,387.996246 
	C143.480820,387.994934 185.461716,387.957184 227.442398,388.031830 
	C233.690231,388.042938 238.901062,386.168518 242.757675,381.178345 
	C247.351654,375.234131 248.172180,368.650940 244.967789,361.920166 
	C241.257263,354.126221 234.469894,351.218109 226.163528,351.215973 
	C172.521454,351.202209 118.879395,351.183472 65.237328,351.169800 
	C64.071648,351.169495 62.899559,351.137878 61.741249,351.241516 
	C50.753357,352.224243 43.621220,360.202087 44.121368,370.917908 
	C44.595016,381.065979 52.142090,387.935272 63.017124,387.983032 
	C75.511192,388.037903 88.005692,387.996368 101.500000,387.996246 
M236.458405,278.920990 
	C233.349579,277.996094 230.245499,276.285919 227.131195,276.267120 
	C193.983185,276.066742 160.833557,276.116852 127.684402,276.141388 
	C119.353516,276.147552 114.159073,280.816376 114.096161,288.156036 
	C114.032898,295.536102 119.133026,300.645782 127.284286,300.668579 
	C160.765869,300.762268 194.247955,300.706390 227.729767,300.658905 
	C233.354446,300.650940 237.843933,298.364563 240.141891,293.039307 
	C242.372253,287.870667 241.061401,283.280334 236.458405,278.920990 
M195.876495,238.479492 
	C195.876495,240.239288 195.876495,241.999084 195.876495,243.706604 
	C188.376038,243.706604 181.657837,243.706604 175.710815,243.706604 
	C171.487991,236.215103 177.540497,230.953369 179.681137,224.228256 
	C173.493927,224.228256 168.529587,224.146225 163.572906,224.304428 
	C162.688232,224.332672 161.238831,225.241547 161.102905,225.946716 
	C160.880402,227.101105 161.241806,229.345062 161.842865,229.527359 
	C166.869995,231.052200 165.629532,235.264450 165.742050,238.586319 
	C165.955765,244.896057 165.654816,251.223038 165.574432,257.542969 
	C165.535400,260.612518 166.161301,263.835754 161.995911,265.207031 
	C161.227722,265.459930 161.203842,267.973755 160.706635,269.963379 
	C167.157135,269.963379 172.883514,269.963379 180.464615,269.963379 
	C178.615082,267.313354 177.499298,265.730682 176.401672,264.135529 
	C175.814819,263.282654 174.818100,262.433105 174.767700,261.539154 
	C174.574448,258.111755 174.689514,254.666992 174.689514,251.084076 
	C182.046219,251.084076 188.738617,251.084076 194.928680,251.084076 
	C198.590378,258.487183 193.700272,263.798615 189.938538,270.430695 
	C196.415817,270.430695 201.215591,270.523926 206.006714,270.361633 
	C207.129623,270.323578 209.181320,269.364166 209.155426,268.926331 
	C209.068634,267.459747 208.529526,265.043457 207.633774,264.777863 
	C204.504974,263.850220 204.708221,261.709747 204.717377,259.351807 
	C204.747757,251.530426 204.740616,243.708725 204.705109,235.887329 
	C204.693695,233.370361 204.484268,231.093231 207.653427,229.818771 
	C208.703934,229.396317 208.841537,226.703796 209.582306,224.495178 
	C202.857895,224.495178 197.267410,224.495178 190.872391,224.495178 
	C191.338821,226.502548 191.375275,229.317184 192.144470,229.534164 
	C196.792145,230.845215 195.783798,234.383057 195.876495,238.479492 
M188.767899,303.710052 
	C181.971100,303.710052 175.174316,303.710052 168.209473,303.710052 
	C168.209473,306.138977 168.209473,308.265564 168.209473,310.533630 
	C169.558487,310.912506 170.887039,311.285675 172.071304,311.618286 
	C172.071304,320.257202 172.071304,328.555084 172.071304,336.906860 
	C170.668488,337.289459 169.447266,337.622528 168.220856,337.957001 
	C168.220856,340.300385 168.220856,342.414307 168.220856,344.684998 
	C173.933228,344.684998 179.456604,344.684998 185.526917,344.684998 
	C185.145935,342.068542 185.276138,338.125458 184.424133,337.900391 
	C179.093307,336.492157 182.415009,332.861084 181.692856,330.606598 
	C186.514038,329.586670 191.229599,329.222717 195.412521,327.537018 
	C200.184830,325.613831 201.788162,320.965637 201.870239,316.021545 
	C201.972351,309.869537 197.336319,305.352051 188.767899,303.710052 
M403.488159,350.379028 
	C400.610748,349.779572 397.733307,349.180084 394.490021,348.504395 
	C393.635773,350.110901 392.664001,351.938385 390.949280,355.163025 
	C396.410553,356.107788 401.020782,357.647400 405.587097,357.526672 
	C413.009338,357.330475 418.436432,352.708374 418.751617,346.325592 
	C419.232086,336.595703 418.877502,326.824554 418.877502,317.110565 
	C413.952972,316.693390 409.376495,316.155701 404.785156,315.948975 
	C396.034119,315.554962 389.288483,322.101105 389.438568,330.640472 
	C389.588776,339.185974 396.441467,345.512634 405.143250,345.062286 
	C406.880768,344.972382 408.603699,344.601379 410.426971,344.346924 
	C410.339447,348.642914 408.006287,350.203857 403.488159,350.379028 
M337.797516,243.896103 
	C342.721893,243.314651 344.326172,245.953323 344.277283,250.404282 
	C344.206573,256.838013 344.259216,263.273102 344.259216,269.838806 
	C348.865814,269.838806 352.784271,269.838806 357.638123,269.838806 
	C356.870789,267.736664 356.634705,265.131104 355.683960,264.837128 
	C352.256287,263.777374 352.786407,261.322021 352.772919,258.905029 
	C352.761780,256.908478 352.753967,254.911835 352.755463,252.915237 
	C352.766022,238.872803 346.647797,234.636871 333.636597,239.662964 
	C333.375366,239.763870 333.015564,239.609619 331.988647,239.494431 
	C331.988647,234.223129 331.988647,228.871735 331.988647,223.122757 
	C328.483795,223.122757 325.666351,222.952271 322.886200,223.200333 
	C321.642334,223.311295 319.459686,224.277908 319.468353,224.828369 
	C319.490723,226.245270 320.195740,228.563156 321.168762,228.884735 
	C324.260101,229.906418 324.023010,232.063248 324.011078,234.422806 
	C323.971619,242.242706 324.016022,250.063049 323.971558,257.882874 
	C323.955475,260.710297 324.875061,263.865173 320.685394,265.092712 
	C319.795502,265.353424 319.582123,267.923004 318.927002,269.801819 
	C325.504150,269.801819 331.080048,269.801819 337.952667,269.801819 
	C336.613617,267.457001 335.759186,265.920074 334.865021,264.406555 
	C333.980194,262.908875 332.522552,261.520874 332.265991,259.931427 
	C331.820557,257.171692 332.294708,254.276825 332.040802,251.469604 
	C331.686310,247.550095 333.157776,245.060883 337.797516,243.896103 
M268.543304,345.023499 
	C271.833252,345.023499 275.123199,345.023499 278.625732,345.023499 
	C278.625732,342.444580 278.625732,340.341827 278.625732,337.911530 
	C274.879822,337.877472 274.507751,335.516235 274.626801,332.350189 
	C274.841827,326.632874 276.382935,323.861359 280.139496,324.291168 
	C285.333893,324.885437 284.128967,329.152710 284.234344,332.457581 
	C284.364990,336.554810 284.265625,340.659393 284.265625,344.781433 
	C288.854950,344.781433 292.789551,344.781433 296.969574,344.781433 
	C296.908325,341.201965 298.739105,337.139038 292.963165,336.788849 
	C292.963165,333.389954 293.043335,330.397095 292.948212,327.409851 
	C292.653198,318.146881 286.284729,313.903931 277.674225,317.171295 
	C276.833649,317.490295 275.969391,317.746918 274.408813,318.269226 
	C274.408813,312.673889 274.408813,307.614685 274.408813,302.735413 
	C269.905945,302.735413 266.014160,302.735413 262.038025,302.735413 
	C262.038025,305.242859 262.038025,307.359314 262.038025,309.717346 
	C263.407166,309.907135 264.630249,310.076660 265.893372,310.251740 
	C265.893372,319.383392 265.893372,328.158997 265.893372,336.925934 
	C264.495178,337.303192 263.275665,337.632233 262.032715,337.967590 
	C262.032715,340.326324 262.032715,342.438812 262.032715,345.023499 
	C263.996277,345.023499 265.785736,345.023499 268.543304,345.023499 
M442.814209,347.465790 
	C445.548523,340.874695 448.274078,334.279938 451.025970,327.696198 
	C451.469086,326.636139 451.865295,324.863464 452.561981,324.713226 
	C457.624939,323.621552 455.175262,320.006470 455.551117,316.983521 
	C450.895416,316.983521 446.494629,316.983521 441.908264,316.983521 
	C440.787354,322.433594 445.595001,328.606598 439.869720,333.004761 
	C434.635803,328.330139 438.805603,322.333069 437.871552,316.984497 
	C433.196289,316.984497 428.775696,316.984497 424.330627,316.984497 
	C423.724121,320.686157 424.638855,322.884888 427.265106,325.818878 
	C430.620544,329.567505 431.756439,335.306366 433.835663,340.193115 
	C436.779877,347.112946 435.948669,349.012970 429.062256,351.125488 
	C429.062256,353.239258 429.062256,355.353333 429.062256,357.945221 
	C432.049347,357.945221 434.837372,357.945251 437.625366,357.945251 
	C440.400970,357.945251 443.176575,357.945221 446.084351,357.945221 
	C446.084351,355.181549 446.084351,352.927582 446.084351,352.165527 
	C444.329742,350.231567 443.393616,349.199768 442.814209,347.465790 
M273.255859,265.365997 
	C270.498077,264.204437 269.484589,262.270508 269.767914,259.187164 
	C270.085754,255.728149 269.977448,252.200546 269.733459,248.725311 
	C269.194092,241.043335 264.129150,236.435135 256.497192,237.200546 
	C253.149048,237.536346 249.853470,239.037094 246.715912,240.421158 
	C245.832336,240.810928 244.840424,243.255081 245.209091,243.722107 
	C246.072418,244.815735 247.725098,245.844498 249.066345,245.854996 
	C250.589981,245.866928 252.080597,244.598053 253.658783,244.136124 
	C259.240173,242.502457 262.286621,245.267380 261.304077,250.577560 
	C256.868134,251.822372 252.429184,252.647476 248.339172,254.323853 
	C243.394333,256.350586 241.753479,260.165070 242.990784,264.739441 
	C244.102859,268.850861 248.170731,271.547729 253.168381,270.754944 
	C256.356842,270.249146 259.388641,268.755615 262.722107,267.626587 
	C262.893097,267.863129 263.203094,268.757324 263.644806,268.827972 
	C266.642303,269.307312 269.664795,269.725311 272.688171,269.799866 
	C272.989288,269.807281 273.350372,267.380890 273.255859,265.365997 
M387.999298,262.488678 
	C389.606720,271.607025 396.911438,273.437592 405.549622,268.496979 
	C411.037140,269.366394 414.788086,269.960693 419.620483,270.726288 
	C418.891113,267.901703 418.894684,265.434906 418.058746,265.106781 
	C414.403809,263.672119 415.126831,260.793976 415.094238,258.092651 
	C415.054047,254.762695 415.137115,251.430008 415.038361,248.102310 
	C414.908783,243.737305 412.879944,240.540283 408.949188,238.520752 
	C403.938934,235.946579 395.798126,236.822037 391.554291,240.704636 
	C390.822906,241.373749 390.252228,243.313873 390.674316,243.904800 
	C391.400360,244.921310 392.981934,245.900848 394.175110,245.866898 
	C395.727875,245.822708 397.216064,244.654388 398.795013,244.178970 
	C404.505493,242.459579 407.292572,244.829269 406.614807,251.121292 
	C404.269257,251.476196 401.764771,251.606354 399.406860,252.262985 
	C394.264740,253.694931 388.851807,254.980087 387.999298,262.488678 
M231.228424,345.016113 
	C232.410538,344.312408 234.664291,343.458771 234.590424,342.930756 
	C234.259842,340.568176 233.265900,338.298401 232.511444,335.995117 
	C232.043304,336.091034 231.575150,336.186920 231.107010,336.282837 
	C230.107178,329.579041 233.652237,321.121826 224.986938,317.259705 
	C218.679932,314.448700 212.376587,315.880005 206.449509,320.185913 
	C207.377731,321.958649 208.179169,323.489227 208.935898,324.934479 
	C218.244644,322.283844 220.925064,322.843811 222.652908,327.689728 
	C220.155991,327.689728 217.691879,327.562988 215.244965,327.714355 
	C208.825043,328.111511 204.846207,331.891083 205.182266,337.117767 
	C205.518082,342.340759 210.655991,346.150513 216.705902,345.749542 
	C221.230560,345.449646 225.762329,345.256744 231.228424,345.016113 
M240.147659,244.580231 
	C236.051514,238.455765 230.279282,235.938385 224.102676,237.582718 
	C216.691910,239.555618 212.528671,244.401016 212.068436,251.588745 
	C211.484711,260.704987 214.766205,267.026550 221.435822,269.634247 
	C228.483810,272.389893 236.481308,270.709320 240.992340,265.474335 
	C239.514191,261.447662 236.989029,261.646545 233.524643,263.163300 
	C225.707306,266.585754 219.858078,263.017578 220.595428,255.138840 
	C225.850861,255.138840 231.147263,255.140427 236.443680,255.138397 
	C241.781769,255.136337 242.567215,254.259384 241.675995,249.049332 
	C241.454361,247.753616 240.922485,246.511002 240.147659,244.580231 
M457.718170,257.210419 
	C458.915558,256.504364 460.082855,255.258713 461.315857,255.189850 
	C465.621368,254.949432 469.949707,255.142029 474.269165,255.120438 
	C479.352722,255.095016 480.084076,254.250412 479.150940,249.195709 
	C478.108429,243.548523 475.213898,239.488037 469.387909,237.823563 
	C463.347504,236.097855 458.116455,237.640686 453.820557,241.853531 
	C447.571838,247.981415 448.268250,261.452972 454.856415,267.185974 
	C461.356720,272.842529 473.099060,271.948853 478.532928,265.384064 
	C475.680145,261.385406 475.680145,261.385406 470.883118,263.297760 
	C464.249054,265.942474 460.148682,264.298279 457.718170,257.210419 
M381.082916,341.609558 
	C386.519989,335.017639 387.154877,328.097565 382.878174,322.041351 
	C379.015228,316.571045 371.510498,314.315277 365.139526,316.793091 
	C359.330597,319.052246 356.053772,323.392487 355.558777,329.551636 
	C355.065948,335.684448 357.411255,340.733551 362.883636,343.713501 
	C368.980530,347.033478 374.996338,346.470459 381.082916,341.609558 
M68.938354,93.362122 
	C65.217316,90.023407 61.380341,90.263412 57.738972,93.322815 
	C54.187038,96.307068 50.709396,99.409546 47.463562,102.719421 
	C44.587975,105.651741 44.011448,109.322350 46.509502,112.706192 
	C49.017014,116.102829 52.053234,119.109154 54.954121,122.395721 
	C62.698086,115.369736 69.893494,108.841446 77.312828,102.110001 
	C74.476700,99.129433 71.975357,96.500702 68.938354,93.362122 
M300.129639,328.063507 
	C300.082733,329.061157 299.971252,330.060608 299.999084,331.056183 
	C300.237152,339.565247 306.648254,345.804901 315.087891,345.769501 
	C323.706421,345.733307 330.190796,339.086182 330.055634,330.426025 
	C329.944061,323.275940 324.746765,317.132904 317.884247,316.039764 
	C309.687988,314.734222 303.558319,318.642578 300.129639,328.063507 
M343.079132,302.369263 
	C340.009521,302.369263 336.939911,302.369263 333.835571,302.369263 
	C333.835571,305.308594 333.835571,307.428467 333.835571,309.537811 
	C335.356506,309.898834 336.679504,310.212830 337.871368,310.495758 
	C337.871368,319.539825 337.871368,328.174469 337.871368,336.859314 
	C336.432098,337.290192 335.085419,337.693329 333.891052,338.050903 
	C333.891052,340.485962 333.891052,342.597717 333.891052,344.776245 
	C339.574921,344.776245 344.994873,344.776245 350.637939,344.776245 
	C350.637939,342.445679 350.637939,340.346069 350.637939,337.993958 
	C349.316254,337.612823 347.962128,337.222382 346.370819,336.763519 
	C346.370819,326.601379 346.468719,316.645569 346.263000,306.696014 
	C346.232941,305.240295 344.757050,303.814453 343.079132,302.369263 
M375.426758,237.127411 
	C366.325104,237.689499 360.996490,241.967529 359.423553,249.975449 
	C357.835449,258.060638 361.265137,266.516815 367.302826,269.402435 
	C373.703369,272.461456 381.640778,270.848694 386.425385,265.372009 
	C385.110931,263.322052 384.104614,260.803223 380.796783,262.699249 
	C376.603088,265.103058 372.532349,265.519531 369.210907,261.357635 
	C366.333313,257.751923 366.596802,249.720551 369.438232,246.276611 
	C372.780060,242.226151 377.789459,243.011063 380.129791,247.648499 
	C380.771881,248.920731 382.765350,249.510971 384.466766,250.629959 
	C386.823914,240.603455 386.232483,239.578705 377.744720,237.358429 
	C377.266235,237.233261 376.760895,237.210815 375.426758,237.127411 
M291.039764,264.197906 
	C290.379272,262.739044 289.181610,261.292542 289.147736,259.819275 
	C288.963959,251.830856 289.068573,243.835846 289.072235,235.843109 
	C289.074097,231.752609 289.072571,227.662094 289.072571,223.441772 
	C284.358429,223.441772 280.452576,223.441772 274.766632,223.441772 
	C276.616394,226.127594 277.830292,227.706741 278.836700,229.408615 
	C279.666077,230.811127 280.811157,232.345016 280.848572,233.844833 
	C281.051971,241.999176 280.964844,250.161041 280.956635,258.320282 
	C280.953888,261.053772 281.657928,263.975342 277.636658,265.014557 
	C276.727356,265.249512 276.421143,267.818237 275.627869,269.848938 
	C282.256165,269.848938 287.840942,269.848938 294.741241,269.848938 
	C293.488068,267.545990 292.653656,266.012573 291.039764,264.197906 
M308.002777,252.509308 
	C308.002777,249.753067 308.002777,246.996811 308.002777,244.241623 
	C311.352448,244.009491 313.933411,243.830643 316.838562,243.629318 
	C316.700012,241.548096 316.595215,239.973877 316.482910,238.286819 
	C313.476959,238.100861 310.897766,237.941284 307.917236,237.756897 
	C307.917236,234.406281 307.917236,231.472107 307.917236,228.714630 
	C303.358948,226.893250 301.667664,228.946579 301.204041,232.726624 
	C300.852722,235.590851 300.608124,237.950485 296.758606,238.786377 
	C293.974091,239.390991 294.453522,242.053604 296.669495,243.642685 
	C297.502075,244.239746 298.746918,244.261917 299.980316,244.593643 
	C299.980316,250.053772 300.080475,255.205978 299.949402,260.352295 
	C299.839630,264.662354 300.657867,268.314240 305.158600,270.110443 
	C309.631775,271.895630 313.477905,270.747620 317.195374,267.851013 
	C316.027130,265.221985 315.477173,262.532898 311.554565,263.876007 
	C310.799652,264.134491 308.481903,262.174896 308.188232,260.930939 
	C307.629456,258.563660 308.011230,255.974380 308.002777,252.509308 
M438.826965,266.039703 
	C434.675293,264.191437 434.093689,260.748962 434.589020,256.751953 
	C434.751587,255.439926 434.582550,254.090027 434.626312,252.759476 
	C434.799805,247.486694 437.078979,245.337585 442.309113,245.034744 
	C443.717438,244.953186 445.838104,244.381195 446.281647,243.414703 
	C446.954071,241.949615 447.121399,239.380188 446.244995,238.325485 
	C445.391632,237.298492 442.732147,236.935944 441.265076,237.441254 
	C438.741241,238.310547 436.527557,240.080444 434.185059,241.471542 
	C431.834778,237.373672 429.802155,236.911331 420.699341,238.797714 
	C428.770691,248.876511 428.652039,259.168243 420.052307,270.126373 
	C426.818665,270.126373 431.937561,270.250793 437.035736,269.982391 
	C437.741089,269.945251 438.344116,267.965240 438.826965,266.039703 
M256.862518,322.292419 
	C256.862518,320.537231 256.862518,318.782013 256.862518,317.036713 
	C254.655731,316.760468 253.037048,316.557861 251.021683,316.305573 
	C251.021683,312.931946 251.021683,309.698761 251.021683,306.465576 
	C250.593079,306.139465 250.164490,305.813385 249.735886,305.487274 
	C247.389954,307.813080 244.872543,309.995514 242.762772,312.518768 
	C241.508972,314.018341 240.896973,316.054535 239.996399,317.849487 
	C239.541046,317.716797 239.085693,317.584106 238.630341,317.451416 
	C238.625885,320.469116 236.993729,324.274109 242.498383,324.414398 
	C242.498383,328.346436 242.470474,331.994720 242.506042,335.642365 
	C242.543396,339.474701 243.294418,343.089569 247.201736,344.826752 
	C250.951691,346.493958 254.581238,345.932343 258.018097,343.447357 
	C257.586212,341.861176 257.204620,340.459839 256.717255,338.670044 
	C251.764923,340.234009 250.631866,337.827759 250.969131,333.584595 
	C251.215988,330.479065 251.017487,327.338135 251.017487,324.468872 
	C253.268661,323.945587 254.982376,323.547272 256.862518,322.292419 
z"/>
<path fill="#F19B34" opacity="1.000000" stroke="none" 
	d="
M112.469009,342.692322 
	C93.871796,340.226654 77.163948,334.151947 62.418812,323.129395 
	C40.901836,307.044678 27.126076,285.855865 23.248871,259.281250 
	C17.163588,217.572342 32.599674,184.741776 66.636314,160.345779 
	C67.706886,159.578430 68.775978,158.809021 70.371185,157.663147 
	C67.819786,154.851288 65.437263,152.194138 63.020767,149.568268 
	C55.878651,141.807327 56.219692,133.388306 63.923676,126.368607 
	C69.336784,121.436302 74.671341,116.417763 80.087059,111.488358 
	C87.361412,104.867226 95.964561,104.368729 102.389168,111.082413 
	C122.762680,132.372620 142.838593,153.947617 163.540405,175.955597 
	C159.510345,179.787338 155.719162,183.428986 151.886597,187.026566 
	C147.027771,191.587479 142.165802,196.145935 137.245605,200.640228 
	C134.427170,203.214706 133.095322,206.223969 135.801575,209.343140 
	C138.680099,212.660873 142.047684,211.743668 144.983261,209.043640 
	C152.093628,202.503799 159.153366,195.908905 166.238708,189.341812 
	C167.812897,187.882751 169.408600,186.446869 170.933578,185.055771 
	C178.075317,189.741821 180.225021,198.958054 174.650162,204.952423 
	C167.655502,212.473450 159.972260,219.488525 151.868561,225.800613 
	C145.529831,230.737900 138.058426,229.016296 132.181976,222.809692 
	C119.930504,209.869934 107.690025,196.919754 95.447304,183.971725 
	C94.307938,182.766724 93.184807,181.546356 91.807365,180.068344 
	C76.889198,187.331772 65.965279,198.216476 58.761532,212.883774 
	C38.796555,253.533707 62.346588,305.002228 113.237892,312.747437 
	C121.748970,314.042755 130.810455,312.634735 139.505249,311.563751 
	C149.003494,310.393799 156.427750,314.525726 158.501129,323.354156 
	C160.251099,330.805511 155.172501,338.781128 146.103485,340.170593 
	C135.167542,341.846161 123.993263,341.966064 112.469009,342.692322 
M45.182217,215.771042 
	C46.295864,213.357422 47.942387,211.031677 48.359364,208.503174 
	C48.710972,206.371048 48.333084,203.435577 47.048279,201.856018 
	C44.200882,198.355331 39.282520,199.642731 37.419849,204.881775 
	C33.881237,214.834732 30.171799,224.891479 28.298254,235.225113 
	C26.465441,245.334076 27.814041,255.747971 30.804794,265.760193 
	C31.832962,269.202240 34.142185,270.753418 37.565891,270.068359 
	C41.100319,269.361237 42.319561,266.740540 41.962280,263.340485 
	C41.824284,262.027252 41.431690,260.742249 41.183079,259.439026 
	C38.385227,244.772827 38.850552,230.392563 45.182217,215.771042 
z"/>
<path fill="#F19B34" opacity="1.000000" stroke="none" 
	d="
M101.000000,387.996460 
	C88.005692,387.996368 75.511192,388.037903 63.017124,387.983032 
	C52.142090,387.935272 44.595016,381.065979 44.121368,370.917908 
	C43.621220,360.202087 50.753357,352.224243 61.741249,351.241516 
	C62.899559,351.137878 64.071648,351.169495 65.237328,351.169800 
	C118.879395,351.183472 172.521454,351.202209 226.163528,351.215973 
	C234.469894,351.218109 241.257263,354.126221 244.967789,361.920166 
	C248.172180,368.650940 247.351654,375.234131 242.757675,381.178345 
	C238.901062,386.168518 233.690231,388.042938 227.442398,388.031830 
	C185.461716,387.957184 143.480820,387.994934 101.000000,387.996460 
M150.210999,367.519287 
	C150.210999,367.519287 150.378494,367.899963 150.171722,368.442841 
	C150.115570,368.628143 150.059418,368.813446 150.000000,369.000000 
	C150.000000,369.000000 149.998779,369.003540 149.387085,369.311249 
	C148.625275,370.270599 147.863480,371.229919 146.525436,372.914917 
	C149.161362,372.914917 150.572922,372.914917 152.828720,372.968018 
	C155.557922,372.308044 158.287125,371.648071 161.038406,371.785583 
	C162.998856,372.175201 164.959305,372.564819 167.716934,372.997070 
	C169.672302,373.263519 171.627686,373.529938 173.825027,373.829315 
	C173.443527,371.718842 172.562790,369.725922 173.079224,369.250336 
	C177.408325,365.264069 173.146423,364.161377 171.231796,362.130737 
	C169.656555,363.200989 168.353195,364.086487 167.013184,364.986206 
	C167.013184,364.986206 167.019257,364.954712 166.820297,364.537537 
	C166.640808,364.274384 166.401978,364.086731 165.309372,363.901031 
	C164.248306,363.954987 163.187225,364.008911 161.369720,364.024963 
	C160.865219,364.048798 160.360733,364.072632 159.137665,364.004242 
	C158.418518,363.917908 157.699371,363.831573 156.621429,363.384033 
	C156.083420,363.614319 155.545410,363.844604 154.524475,364.368713 
	C154.022491,364.626190 153.520508,364.883636 152.602417,364.841431 
	C152.394058,364.575928 152.185699,364.310425 151.888351,363.361938 
	C149.732925,360.898315 148.435028,362.530365 147.208023,364.805267 
	C147.207565,365.111328 147.180908,365.415039 147.409042,366.381073 
	C148.316177,366.625214 149.223312,366.869354 150.210999,367.519287 
M128.638245,365.571869 
	C127.757889,365.707153 126.877533,365.842438 125.360878,366.026398 
	C124.936485,366.039307 124.512093,366.052216 123.487213,365.760193 
	C122.171036,363.580750 120.387184,362.867554 117.250031,363.949310 
	C115.978378,364.467529 114.706718,364.985748 113.435051,365.503967 
	C114.416779,367.175690 115.398499,368.847443 116.349777,370.467316 
	C115.362663,370.964844 114.396767,371.451660 113.430870,371.938507 
	C113.513924,372.282562 113.596977,372.626617 113.680038,372.970673 
	C115.099899,372.970673 116.519768,372.970673 118.646812,372.941589 
	C120.452553,372.943817 122.258286,372.946075 124.758675,372.810852 
	C125.428787,371.350433 126.098900,369.890015 127.065063,367.784393 
	C127.743896,369.826019 128.194931,371.182556 128.645966,372.539062 
	C129.105179,372.443024 129.564377,372.346985 130.023575,372.250916 
	C129.656967,370.209778 129.290359,368.168640 128.638245,365.571869 
M134.695129,370.141815 
	C135.844788,371.036438 136.889175,372.415344 138.172684,372.694397 
	C139.554321,372.994751 141.856674,372.752991 142.486526,371.855743 
	C143.224609,370.804291 143.142609,368.401917 142.377655,367.319641 
	C141.781860,366.476654 139.454254,366.280487 138.155472,366.667267 
	C136.741302,367.088379 135.626266,368.513916 134.695129,370.141815 
z"/>
<path fill="#EF9B37" opacity="1.000000" stroke="none" 
	d="
M236.732147,279.180786 
	C241.061401,283.280334 242.372253,287.870667 240.141891,293.039307 
	C237.843933,298.364563 233.354446,300.650940 227.729767,300.658905 
	C194.247955,300.706390 160.765869,300.762268 127.284286,300.668579 
	C119.133026,300.645782 114.032898,295.536102 114.096161,288.156036 
	C114.159073,280.816376 119.353516,276.147552 127.684402,276.141388 
	C160.833557,276.116852 193.983185,276.066742 227.131195,276.267120 
	C230.245499,276.285919 233.349579,277.996094 236.732147,279.180786 
z"/>
<path fill="#EA9C3E" opacity="1.000000" stroke="none" 
	d="
M195.878296,238.018433 
	C195.783798,234.383057 196.792145,230.845215 192.144470,229.534164 
	C191.375275,229.317184 191.338821,226.502548 190.872391,224.495178 
	C197.267410,224.495178 202.857895,224.495178 209.582306,224.495178 
	C208.841537,226.703796 208.703934,229.396317 207.653427,229.818771 
	C204.484268,231.093231 204.693695,233.370361 204.705109,235.887329 
	C204.740616,243.708725 204.747757,251.530426 204.717377,259.351807 
	C204.708221,261.709747 204.504974,263.850220 207.633774,264.777863 
	C208.529526,265.043457 209.068634,267.459747 209.155426,268.926331 
	C209.181320,269.364166 207.129623,270.323578 206.006714,270.361633 
	C201.215591,270.523926 196.415817,270.430695 189.938538,270.430695 
	C193.700272,263.798615 198.590378,258.487183 194.928680,251.084076 
	C188.738617,251.084076 182.046219,251.084076 174.689514,251.084076 
	C174.689514,254.666992 174.574448,258.111755 174.767700,261.539154 
	C174.818100,262.433105 175.814819,263.282654 176.401672,264.135529 
	C177.499298,265.730682 178.615082,267.313354 180.464615,269.963379 
	C172.883514,269.963379 167.157135,269.963379 160.706635,269.963379 
	C161.203842,267.973755 161.227722,265.459930 161.995911,265.207031 
	C166.161301,263.835754 165.535400,260.612518 165.574432,257.542969 
	C165.654816,251.223038 165.955765,244.896057 165.742050,238.586319 
	C165.629532,235.264450 166.869995,231.052200 161.842865,229.527359 
	C161.241806,229.345062 160.880402,227.101105 161.102905,225.946716 
	C161.238831,225.241547 162.688232,224.332672 163.572906,224.304428 
	C168.529587,224.146225 173.493927,224.228256 179.681137,224.228256 
	C177.540497,230.953369 171.487991,236.215103 175.710815,243.706604 
	C181.657837,243.706604 188.376038,243.706604 195.876495,243.706604 
	C195.876495,241.999084 195.876495,240.239288 195.878296,238.018433 
z"/>
<path fill="#40305F" opacity="1.000000" stroke="none" 
	d="
M189.191147,303.755768 
	C197.336319,305.352051 201.972351,309.869537 201.870239,316.021545 
	C201.788162,320.965637 200.184830,325.613831 195.412521,327.537018 
	C191.229599,329.222717 186.514038,329.586670 181.692856,330.606598 
	C182.415009,332.861084 179.093307,336.492157 184.424133,337.900391 
	C185.276138,338.125458 185.145935,342.068542 185.526917,344.684998 
	C179.456604,344.684998 173.933228,344.684998 168.220856,344.684998 
	C168.220856,342.414307 168.220856,340.300385 168.220856,337.957001 
	C169.447266,337.622528 170.668488,337.289459 172.071304,336.906860 
	C172.071304,328.555084 172.071304,320.257202 172.071304,311.618286 
	C170.887039,311.285675 169.558487,310.912506 168.209473,310.533630 
	C168.209473,308.265564 168.209473,306.138977 168.209473,303.710052 
	C175.174316,303.710052 181.971100,303.710052 189.191147,303.755768 
M181.383560,318.312561 
	C180.668854,323.141174 184.040512,322.258759 186.737213,322.018890 
	C190.242447,321.707092 192.233917,319.770020 191.936447,316.107208 
	C191.603470,312.007324 188.129807,310.484528 181.383484,311.605133 
	C181.383484,313.485779 181.383484,315.450470 181.383560,318.312561 
z"/>
<path fill="#3F305F" opacity="1.000000" stroke="none" 
	d="
M403.920654,350.377502 
	C408.006287,350.203857 410.339447,348.642914 410.426971,344.346924 
	C408.603699,344.601379 406.880768,344.972382 405.143250,345.062286 
	C396.441467,345.512634 389.588776,339.185974 389.438568,330.640472 
	C389.288483,322.101105 396.034119,315.554962 404.785156,315.948975 
	C409.376495,316.155701 413.952972,316.693390 418.877502,317.110565 
	C418.877502,326.824554 419.232086,336.595703 418.751617,346.325592 
	C418.436432,352.708374 413.009338,357.330475 405.587097,357.526672 
	C401.020782,357.647400 396.410553,356.107788 390.949280,355.163025 
	C392.664001,351.938385 393.635773,350.110901 394.490021,348.504395 
	C397.733307,349.180084 400.610748,349.779572 403.920654,350.377502 
M410.837036,328.895386 
	C410.187531,324.476013 407.258331,323.037018 403.324280,323.741913 
	C399.199036,324.481079 397.603699,327.464355 397.998444,331.484741 
	C398.369507,335.264038 401.555359,337.926331 405.244202,337.499481 
	C409.879791,336.963043 411.299744,333.974182 410.837036,328.895386 
z"/>
<path fill="#E89D41" opacity="1.000000" stroke="none" 
	d="
M337.384644,243.950806 
	C333.157776,245.060883 331.686310,247.550095 332.040802,251.469604 
	C332.294708,254.276825 331.820557,257.171692 332.265991,259.931427 
	C332.522552,261.520874 333.980194,262.908875 334.865021,264.406555 
	C335.759186,265.920074 336.613617,267.457001 337.952667,269.801819 
	C331.080048,269.801819 325.504150,269.801819 318.927002,269.801819 
	C319.582123,267.923004 319.795502,265.353424 320.685394,265.092712 
	C324.875061,263.865173 323.955475,260.710297 323.971558,257.882874 
	C324.016022,250.063049 323.971619,242.242706 324.011078,234.422806 
	C324.023010,232.063248 324.260101,229.906418 321.168762,228.884735 
	C320.195740,228.563156 319.490723,226.245270 319.468353,224.828369 
	C319.459686,224.277908 321.642334,223.311295 322.886200,223.200333 
	C325.666351,222.952271 328.483795,223.122757 331.988647,223.122757 
	C331.988647,228.871735 331.988647,234.223129 331.988647,239.494431 
	C333.015564,239.609619 333.375366,239.763870 333.636597,239.662964 
	C346.647797,234.636871 352.766022,238.872803 352.755463,252.915237 
	C352.753967,254.911835 352.761780,256.908478 352.772919,258.905029 
	C352.786407,261.322021 352.256287,263.777374 355.683960,264.837128 
	C356.634705,265.131104 356.870789,267.736664 357.638123,269.838806 
	C352.784271,269.838806 348.865814,269.838806 344.259216,269.838806 
	C344.259216,263.273102 344.206573,256.838013 344.277283,250.404282 
	C344.326172,245.953323 342.721893,243.314651 337.384644,243.950806 
z"/>
<path fill="#443562" opacity="1.000000" stroke="none" 
	d="
M268.059265,345.023499 
	C265.785736,345.023499 263.996277,345.023499 262.032715,345.023499 
	C262.032715,342.438812 262.032715,340.326324 262.032715,337.967590 
	C263.275665,337.632233 264.495178,337.303192 265.893372,336.925934 
	C265.893372,328.158997 265.893372,319.383392 265.893372,310.251740 
	C264.630249,310.076660 263.407166,309.907135 262.038025,309.717346 
	C262.038025,307.359314 262.038025,305.242859 262.038025,302.735413 
	C266.014160,302.735413 269.905945,302.735413 274.408813,302.735413 
	C274.408813,307.614685 274.408813,312.673889 274.408813,318.269226 
	C275.969391,317.746918 276.833649,317.490295 277.674225,317.171295 
	C286.284729,313.903931 292.653198,318.146881 292.948212,327.409851 
	C293.043335,330.397095 292.963165,333.389954 292.963165,336.788849 
	C298.739105,337.139038 296.908325,341.201965 296.969574,344.781433 
	C292.789551,344.781433 288.854950,344.781433 284.265625,344.781433 
	C284.265625,340.659393 284.364990,336.554810 284.234344,332.457581 
	C284.128967,329.152710 285.333893,324.885437 280.139496,324.291168 
	C276.382935,323.861359 274.841827,326.632874 274.626801,332.350189 
	C274.507751,335.516235 274.879822,337.877472 278.625732,337.911530 
	C278.625732,340.341827 278.625732,342.444580 278.625732,345.023499 
	C275.123199,345.023499 271.833252,345.023499 268.059265,345.023499 
z"/>
<path fill="#3F305F" opacity="1.000000" stroke="none" 
	d="
M442.635864,347.816895 
	C443.393616,349.199768 444.329742,350.231567 446.084351,352.165527 
	C446.084351,352.927582 446.084351,355.181549 446.084351,357.945221 
	C443.176575,357.945221 440.400970,357.945251 437.625366,357.945251 
	C434.837372,357.945251 432.049347,357.945221 429.062256,357.945221 
	C429.062256,355.353333 429.062256,353.239258 429.062256,351.125488 
	C435.948669,349.012970 436.779877,347.112946 433.835663,340.193115 
	C431.756439,335.306366 430.620544,329.567505 427.265106,325.818878 
	C424.638855,322.884888 423.724121,320.686157 424.330627,316.984497 
	C428.775696,316.984497 433.196289,316.984497 437.871552,316.984497 
	C438.805603,322.333069 434.635803,328.330139 439.869720,333.004761 
	C445.595001,328.606598 440.787354,322.433594 441.908264,316.983521 
	C446.494629,316.983521 450.895416,316.983521 455.551117,316.983521 
	C455.175262,320.006470 457.624939,323.621552 452.561981,324.713226 
	C451.865295,324.863464 451.469086,326.636139 451.025970,327.696198 
	C448.274078,334.279938 445.548523,340.874695 442.635864,347.816895 
z"/>
<path fill="#E69D43" opacity="1.000000" stroke="none" 
	d="
M273.469757,265.725037 
	C273.350372,267.380890 272.989288,269.807281 272.688171,269.799866 
	C269.664795,269.725311 266.642303,269.307312 263.644806,268.827972 
	C263.203094,268.757324 262.893097,267.863129 262.722107,267.626587 
	C259.388641,268.755615 256.356842,270.249146 253.168381,270.754944 
	C248.170731,271.547729 244.102859,268.850861 242.990784,264.739441 
	C241.753479,260.165070 243.394333,256.350586 248.339172,254.323853 
	C252.429184,252.647476 256.868134,251.822372 261.304077,250.577560 
	C262.286621,245.267380 259.240173,242.502457 253.658783,244.136124 
	C252.080597,244.598053 250.589981,245.866928 249.066345,245.854996 
	C247.725098,245.844498 246.072418,244.815735 245.209091,243.722107 
	C244.840424,243.255081 245.832336,240.810928 246.715912,240.421158 
	C249.853470,239.037094 253.149048,237.536346 256.497192,237.200546 
	C264.129150,236.435135 269.194092,241.043335 269.733459,248.725311 
	C269.977448,252.200546 270.085754,255.728149 269.767914,259.187164 
	C269.484589,262.270508 270.498077,264.204437 273.469757,265.725037 
M250.684647,260.806122 
	C250.626251,265.531036 253.921951,265.325409 256.919617,264.646942 
	C260.716675,263.787384 263.237640,261.693298 260.919708,255.800293 
	C257.479675,257.283875 254.204041,258.696564 250.684647,260.806122 
z"/>
<path fill="#E79D42" opacity="1.000000" stroke="none" 
	d="
M388.008606,262.089111 
	C388.851807,254.980087 394.264740,253.694931 399.406860,252.262985 
	C401.764771,251.606354 404.269257,251.476196 406.614807,251.121292 
	C407.292572,244.829269 404.505493,242.459579 398.795013,244.178970 
	C397.216064,244.654388 395.727875,245.822708 394.175110,245.866898 
	C392.981934,245.900848 391.400360,244.921310 390.674316,243.904800 
	C390.252228,243.313873 390.822906,241.373749 391.554291,240.704636 
	C395.798126,236.822037 403.938934,235.946579 408.949188,238.520752 
	C412.879944,240.540283 414.908783,243.737305 415.038361,248.102310 
	C415.137115,251.430008 415.054047,254.762695 415.094238,258.092651 
	C415.126831,260.793976 414.403809,263.672119 418.058746,265.106781 
	C418.894684,265.434906 418.891113,267.901703 419.620483,270.726288 
	C414.788086,269.960693 411.037140,269.366394 405.549622,268.496979 
	C396.911438,273.437592 389.606720,271.607025 388.008606,262.089111 
M396.224731,259.977173 
	C396.804321,261.487885 397.315186,264.250153 397.975708,264.286377 
	C400.456177,264.422546 403.342377,264.262207 405.371002,263.040985 
	C406.725800,262.225372 406.886200,259.425781 407.581085,257.514038 
	C407.108948,257.053131 406.636780,256.592224 406.164642,256.131287 
	C403.015137,257.198395 399.865631,258.265503 396.224731,259.977173 
z"/>
<path fill="#413160" opacity="1.000000" stroke="none" 
	d="
M230.759674,345.016174 
	C225.762329,345.256744 221.230560,345.449646 216.705902,345.749542 
	C210.655991,346.150513 205.518082,342.340759 205.182266,337.117767 
	C204.846207,331.891083 208.825043,328.111511 215.244965,327.714355 
	C217.691879,327.562988 220.155991,327.689728 222.652908,327.689728 
	C220.925064,322.843811 218.244644,322.283844 208.935898,324.934479 
	C208.179169,323.489227 207.377731,321.958649 206.449509,320.185913 
	C212.376587,315.880005 218.679932,314.448700 224.986938,317.259705 
	C233.652237,321.121826 230.107178,329.579041 231.107010,336.282837 
	C231.575150,336.186920 232.043304,336.091034 232.511444,335.995117 
	C233.265900,338.298401 234.259842,340.568176 234.590424,342.930756 
	C234.664291,343.458771 232.410538,344.312408 230.759674,345.016174 
M213.918777,334.391785 
	C213.928894,335.692627 213.938995,336.993500 213.949112,338.294342 
	C216.303314,338.253510 218.768539,338.610657 220.963333,337.998413 
	C222.009094,337.706635 222.540436,335.570892 224.002502,333.083344 
	C219.769547,333.474792 217.186188,333.713715 213.918777,334.391785 
z"/>
<path fill="#E69C42" opacity="1.000000" stroke="none" 
	d="
M240.340424,244.912109 
	C240.922485,246.511002 241.454361,247.753616 241.675995,249.049332 
	C242.567215,254.259384 241.781769,255.136337 236.443680,255.138397 
	C231.147263,255.140427 225.850861,255.138840 220.595428,255.138840 
	C219.858078,263.017578 225.707306,266.585754 233.524643,263.163300 
	C236.989029,261.646545 239.514191,261.447662 240.992340,265.474335 
	C236.481308,270.709320 228.483810,272.389893 221.435822,269.634247 
	C214.766205,267.026550 211.484711,260.704987 212.068436,251.588745 
	C212.528671,244.401016 216.691910,239.555618 224.102676,237.582718 
	C230.279282,235.938385 236.051514,238.455765 240.340424,244.912109 
M226.582367,250.163895 
	C228.975433,250.163895 231.368484,250.163895 234.167435,250.163895 
	C233.119827,245.028198 230.489548,242.844818 226.333054,243.228317 
	C222.706345,243.562943 220.537018,245.813416 220.479553,250.167435 
	C222.403000,250.167435 224.042191,250.167435 226.582367,250.163895 
z"/>
<path fill="#E79C41" opacity="1.000000" stroke="none" 
	d="
M457.783661,257.640808 
	C460.148682,264.298279 464.249054,265.942474 470.883118,263.297760 
	C475.680145,261.385406 475.680145,261.385406 478.532928,265.384064 
	C473.099060,271.948853 461.356720,272.842529 454.856415,267.185974 
	C448.268250,261.452972 447.571838,247.981415 453.820557,241.853531 
	C458.116455,237.640686 463.347504,236.097855 469.387909,237.823563 
	C475.213898,239.488037 478.108429,243.548523 479.150940,249.195709 
	C480.084076,254.250412 479.352722,255.095016 474.269165,255.120438 
	C469.949707,255.142029 465.621368,254.949432 461.315857,255.189850 
	C460.082855,255.258713 458.915558,256.504364 457.783661,257.640808 
M471.092407,247.454147 
	C469.536774,243.959503 466.602509,242.190811 463.170135,243.382309 
	C460.875580,244.178818 459.186279,246.719025 457.226135,248.478912 
	C457.549469,249.040039 457.872833,249.601181 458.196198,250.162308 
	C462.073395,250.162308 465.953461,250.232925 469.824249,250.075333 
	C470.323059,250.055008 470.773682,248.851593 471.092407,247.454147 
z"/>
<path fill="#413160" opacity="1.000000" stroke="none" 
	d="
M380.801666,341.846497 
	C374.996338,346.470459 368.980530,347.033478 362.883636,343.713501 
	C357.411255,340.733551 355.065948,335.684448 355.558777,329.551636 
	C356.053772,323.392487 359.330597,319.052246 365.139526,316.793091 
	C371.510498,314.315277 379.015228,316.571045 382.878174,322.041351 
	C387.154877,328.097565 386.519989,335.017639 380.801666,341.846497 
M376.382874,334.489502 
	C376.638611,332.880707 377.185638,331.254883 377.092560,329.666534 
	C376.862366,325.739441 374.444641,323.572845 370.643860,323.519073 
	C366.873108,323.465759 364.397003,325.513153 363.891113,329.411560 
	C363.450684,332.805420 364.315247,335.749054 367.641510,337.317444 
	C370.915100,338.861084 373.748596,338.074677 376.382874,334.489502 
z"/>
<path fill="#EC9B39" opacity="1.000000" stroke="none" 
	d="
M69.206177,93.617050 
	C71.975357,96.500702 74.476700,99.129433 77.312828,102.110001 
	C69.893494,108.841446 62.698086,115.369736 54.954121,122.395721 
	C52.053234,119.109154 49.017014,116.102829 46.509502,112.706192 
	C44.011448,109.322350 44.587975,105.651741 47.463562,102.719421 
	C50.709396,99.409546 54.187038,96.307068 57.738972,93.322815 
	C61.380341,90.263412 65.217316,90.023407 69.206177,93.617050 
z"/>
<path fill="#40305F" opacity="1.000000" stroke="none" 
	d="
M300.213440,327.658447 
	C303.558319,318.642578 309.687988,314.734222 317.884247,316.039764 
	C324.746765,317.132904 329.944061,323.275940 330.055634,330.426025 
	C330.190796,339.086182 323.706421,345.733307 315.087891,345.769501 
	C306.648254,345.804901 300.237152,339.565247 299.999084,331.056183 
	C299.971252,330.060608 300.082733,329.061157 300.213440,327.658447 
M309.019318,334.270386 
	C313.111755,339.186493 318.450531,339.279022 320.924927,334.406494 
	C322.586121,331.135345 322.499878,327.509399 319.574982,325.433380 
	C317.665649,324.078247 314.084229,323.511139 311.964264,324.363312 
	C308.145538,325.898438 307.338562,329.592590 309.019318,334.270386 
z"/>
<path fill="#3F2F5E" opacity="1.000000" stroke="none" 
	d="
M343.514648,302.372009 
	C344.757050,303.814453 346.232941,305.240295 346.263000,306.696014 
	C346.468719,316.645569 346.370819,326.601379 346.370819,336.763519 
	C347.962128,337.222382 349.316254,337.612823 350.637939,337.993958 
	C350.637939,340.346069 350.637939,342.445679 350.637939,344.776245 
	C344.994873,344.776245 339.574921,344.776245 333.891052,344.776245 
	C333.891052,342.597717 333.891052,340.485962 333.891052,338.050903 
	C335.085419,337.693329 336.432098,337.290192 337.871368,336.859314 
	C337.871368,328.174469 337.871368,319.539825 337.871368,310.495758 
	C336.679504,310.212830 335.356506,309.898834 333.835571,309.537811 
	C333.835571,307.428467 333.835571,305.308594 333.835571,302.369263 
	C336.939911,302.369263 340.009521,302.369263 343.514648,302.372009 
z"/>
<path fill="#E79D42" opacity="1.000000" stroke="none" 
	d="
M375.847412,237.133972 
	C376.760895,237.210815 377.266235,237.233261 377.744720,237.358429 
	C386.232483,239.578705 386.823914,240.603455 384.466766,250.629959 
	C382.765350,249.510971 380.771881,248.920731 380.129791,247.648499 
	C377.789459,243.011063 372.780060,242.226151 369.438232,246.276611 
	C366.596802,249.720551 366.333313,257.751923 369.210907,261.357635 
	C372.532349,265.519531 376.603088,265.103058 380.796783,262.699249 
	C384.104614,260.803223 385.110931,263.322052 386.425385,265.372009 
	C381.640778,270.848694 373.703369,272.461456 367.302826,269.402435 
	C361.265137,266.516815 357.835449,258.060638 359.423553,249.975449 
	C360.996490,241.967529 366.325104,237.689499 375.847412,237.133972 
z"/>
<path fill="#E99B3D" opacity="1.000000" stroke="none" 
	d="
M291.429504,264.338562 
	C292.653656,266.012573 293.488068,267.545990 294.741241,269.848938 
	C287.840942,269.848938 282.256165,269.848938 275.627869,269.848938 
	C276.421143,267.818237 276.727356,265.249512 277.636658,265.014557 
	C281.657928,263.975342 280.953888,261.053772 280.956635,258.320282 
	C280.964844,250.161041 281.051971,241.999176 280.848572,233.844833 
	C280.811157,232.345016 279.666077,230.811127 278.836700,229.408615 
	C277.830292,227.706741 276.616394,226.127594 274.766632,223.441772 
	C280.452576,223.441772 284.358429,223.441772 289.072571,223.441772 
	C289.072571,227.662094 289.074097,231.752609 289.072235,235.843109 
	C289.068573,243.835846 288.963959,251.830856 289.147736,259.819275 
	C289.181610,261.292542 290.379272,262.739044 291.429504,264.338562 
z"/>
<path fill="#E69C41" opacity="1.000000" stroke="none" 
	d="
M308.002625,252.993301 
	C308.011230,255.974380 307.629456,258.563660 308.188232,260.930939 
	C308.481903,262.174896 310.799652,264.134491 311.554565,263.876007 
	C315.477173,262.532898 316.027130,265.221985 317.195374,267.851013 
	C313.477905,270.747620 309.631775,271.895630 305.158600,270.110443 
	C300.657867,268.314240 299.839630,264.662354 299.949402,260.352295 
	C300.080475,255.205978 299.980316,250.053772 299.980316,244.593643 
	C298.746918,244.261917 297.502075,244.239746 296.669495,243.642685 
	C294.453522,242.053604 293.974091,239.390991 296.758606,238.786377 
	C300.608124,237.950485 300.852722,235.590851 301.204041,232.726624 
	C301.667664,228.946579 303.358948,226.893250 307.917236,228.714630 
	C307.917236,231.472107 307.917236,234.406281 307.917236,237.756897 
	C310.897766,237.941284 313.476959,238.100861 316.482910,238.286819 
	C316.595215,239.973877 316.700012,241.548096 316.838562,243.629318 
	C313.933411,243.830643 311.352448,244.009491 308.002777,244.241623 
	C308.002777,246.996811 308.002777,249.753067 308.002625,252.993301 
z"/>
<path fill="#E89D41" opacity="1.000000" stroke="none" 
	d="
M438.910736,266.462219 
	C438.344116,267.965240 437.741089,269.945251 437.035736,269.982391 
	C431.937561,270.250793 426.818665,270.126373 420.052307,270.126373 
	C428.652039,259.168243 428.770691,248.876511 420.699341,238.797714 
	C429.802155,236.911331 431.834778,237.373672 434.185059,241.471542 
	C436.527557,240.080444 438.741241,238.310547 441.265076,237.441254 
	C442.732147,236.935944 445.391632,237.298492 446.244995,238.325485 
	C447.121399,239.380188 446.954071,241.949615 446.281647,243.414703 
	C445.838104,244.381195 443.717438,244.953186 442.309113,245.034744 
	C437.078979,245.337585 434.799805,247.486694 434.626312,252.759476 
	C434.582550,254.090027 434.751587,255.439926 434.589020,256.751953 
	C434.093689,260.748962 434.675293,264.191437 438.910736,266.462219 
z"/>
<path fill="#3E2F5E" opacity="1.000000" stroke="none" 
	d="
M256.779297,322.720673 
	C254.982376,323.547272 253.268661,323.945587 251.017487,324.468872 
	C251.017487,327.338135 251.215988,330.479065 250.969131,333.584595 
	C250.631866,337.827759 251.764923,340.234009 256.717255,338.670044 
	C257.204620,340.459839 257.586212,341.861176 258.018097,343.447357 
	C254.581238,345.932343 250.951691,346.493958 247.201736,344.826752 
	C243.294418,343.089569 242.543396,339.474701 242.506042,335.642365 
	C242.470474,331.994720 242.498383,328.346436 242.498383,324.414398 
	C236.993729,324.274109 238.625885,320.469116 238.630341,317.451416 
	C239.085693,317.584106 239.541046,317.716797 239.996399,317.849487 
	C240.896973,316.054535 241.508972,314.018341 242.762772,312.518768 
	C244.872543,309.995514 247.389954,307.813080 249.735886,305.487274 
	C250.164490,305.813385 250.593079,306.139465 251.021683,306.465576 
	C251.021683,309.698761 251.021683,312.931946 251.021683,316.305573 
	C253.037048,316.557861 254.655731,316.760468 256.862518,317.036713 
	C256.862518,318.782013 256.862518,320.537231 256.779297,322.720673 
z"/>
<path fill="#FBFBFA" opacity="1.000000" stroke="none" 
	d="
M45.072212,216.140564 
	C38.850552,230.392563 38.385227,244.772827 41.183079,259.439026 
	C41.431690,260.742249 41.824284,262.027252 41.962280,263.340485 
	C42.319561,266.740540 41.100319,269.361237 37.565891,270.068359 
	C34.142185,270.753418 31.832962,269.202240 30.804794,265.760193 
	C27.814041,255.747971 26.465441,245.334076 28.298254,235.225113 
	C30.171799,224.891479 33.881237,214.834732 37.419849,204.881775 
	C39.282520,199.642731 44.200882,198.355331 47.048279,201.856018 
	C48.333084,203.435577 48.710972,206.371048 48.359364,208.503174 
	C47.942387,211.031677 46.295864,213.357422 45.072212,216.140564 
z"/>
<path fill="#EDA34B" opacity="1.000000" stroke="none" 
	d="
M167.049866,364.971985 
	C168.353195,364.086487 169.656555,363.200989 171.231796,362.130737 
	C173.146423,364.161377 177.408325,365.264069 173.079224,369.250336 
	C172.562790,369.725922 173.443527,371.718842 173.825027,373.829315 
	C171.627686,373.529938 169.672302,373.263519 167.314178,372.663147 
	C166.957581,369.876801 167.003723,367.424377 167.049866,364.971985 
z"/>
<path fill="#FCCD87" opacity="1.000000" stroke="none" 
	d="
M161.016327,370.988129 
	C158.287125,371.648071 155.557922,372.308044 152.360245,372.621063 
	C151.260773,371.183929 150.629776,370.093719 149.998779,369.003540 
	C149.998779,369.003540 150.000000,369.000000 150.354950,368.995483 
	C153.343552,368.825500 154.545792,367.801697 153.018524,365.141083 
	C153.520508,364.883636 154.022491,364.626190 155.099243,364.192749 
	C156.109421,363.926270 156.544830,363.835754 156.980225,363.745239 
	C157.699371,363.831573 158.418518,363.917908 159.596436,364.423615 
	C160.365128,366.905243 160.675049,368.967499 160.987793,371.015900 
	C160.990631,371.002045 161.016327,370.988129 161.016327,370.988129 
z"/>
<path fill="#E4A354" opacity="1.000000" stroke="none" 
	d="
M118.010399,364.013336 
	C120.387184,362.867554 122.171036,363.580750 123.742203,366.339935 
	C124.019478,368.929199 124.041748,370.938751 124.064026,372.948303 
	C122.258286,372.946075 120.452553,372.943817 118.463791,372.648621 
	C118.062180,370.937927 118.352753,368.942749 117.526482,368.214203 
	C115.328056,366.275757 116.835960,365.277802 118.010399,364.013336 
z"/>
<path fill="#FCD192" opacity="1.000000" stroke="none" 
	d="
M134.537979,369.821686 
	C135.626266,368.513916 136.741302,367.088379 138.155472,366.667267 
	C139.454254,366.280487 141.781860,366.476654 142.377655,367.319641 
	C143.142609,368.401917 143.224609,370.804291 142.486526,371.855743 
	C141.856674,372.752991 139.554321,372.994751 138.172684,372.694397 
	C136.889175,372.415344 135.844788,371.036438 134.537979,369.821686 
z"/>
<path fill="#FCD192" opacity="1.000000" stroke="none" 
	d="
M117.630219,363.981323 
	C116.835960,365.277802 115.328056,366.275757 117.526482,368.214203 
	C118.352753,368.942749 118.062180,370.937927 118.110199,372.663147 
	C116.519768,372.970673 115.099899,372.970673 113.680038,372.970673 
	C113.596977,372.626617 113.513924,372.282562 113.430870,371.938507 
	C114.396767,371.451660 115.362663,370.964844 116.349777,370.467316 
	C115.398499,368.847443 114.416779,367.175690 113.435059,365.503967 
	C114.706718,364.985748 115.978378,364.467529 117.630219,363.981323 
z"/>
<path fill="#FCCD87" opacity="1.000000" stroke="none" 
	d="
M124.411346,372.879578 
	C124.041748,370.938751 124.019478,368.929199 124.042450,366.492401 
	C124.512093,366.052216 124.936485,366.039307 126.045837,366.013733 
	C127.461784,366.043213 128.192764,366.085358 128.923752,366.127502 
	C129.290359,368.168640 129.656967,370.209778 130.023575,372.250916 
	C129.564377,372.346985 129.105179,372.443024 128.645966,372.539062 
	C128.194931,371.182556 127.743896,369.826019 127.065063,367.784393 
	C126.098900,369.890015 125.428787,371.350433 124.411346,372.879578 
z"/>
<path fill="#FCD192" opacity="1.000000" stroke="none" 
	d="
M167.031525,364.979095 
	C167.003723,367.424377 166.957581,369.876801 166.915588,372.641815 
	C164.959305,372.564819 162.998856,372.175201 161.027374,371.386841 
	C161.016327,370.988129 160.990631,371.002045 161.331055,370.957611 
	C165.345322,368.863525 165.777786,366.598724 162.126160,364.062866 
	C163.187225,364.008911 164.248306,363.954987 165.782318,364.162354 
	C166.438705,364.703094 166.693375,364.880096 167.019257,364.954712 
	C167.019257,364.954712 167.013184,364.986206 167.031525,364.979095 
z"/>
<path fill="#EDA34B" opacity="1.000000" stroke="none" 
	d="
M161.747940,364.043915 
	C165.777786,366.598724 165.345322,368.863525 161.328217,370.971466 
	C160.675049,368.967499 160.365128,366.905243 159.955719,364.469727 
	C160.360733,364.072632 160.865219,364.048798 161.747940,364.043915 
z"/>
<path fill="#FCD192" opacity="1.000000" stroke="none" 
	d="
M152.810471,364.991272 
	C154.545792,367.801697 153.343552,368.825500 150.356567,368.994873 
	C150.059418,368.813446 150.115570,368.628143 150.415237,368.031433 
	C150.814972,367.385376 150.889954,367.127014 150.791000,366.638916 
	C150.532272,366.153748 150.289139,365.986694 149.612762,365.903564 
	C148.547058,365.822388 147.837555,365.769440 147.128036,365.716461 
	C147.180908,365.415039 147.207565,365.111328 147.581390,364.475464 
	C149.295624,364.112091 150.636475,364.078522 151.977341,364.044922 
	C152.185699,364.310425 152.394058,364.575928 152.810471,364.991272 
z"/>
<path fill="#FCD192" opacity="1.000000" stroke="none" 
	d="
M149.692932,369.157410 
	C150.629776,370.093719 151.260773,371.183929 151.938141,372.594513 
	C150.572922,372.914917 149.161362,372.914917 146.525436,372.914917 
	C147.863480,371.229919 148.625275,370.270599 149.692932,369.157410 
z"/>
<path fill="#EDA34B" opacity="1.000000" stroke="none" 
	d="
M151.932846,363.703430 
	C150.636475,364.078522 149.295624,364.112091 147.565430,364.247131 
	C148.435028,362.530365 149.732925,360.898315 151.932846,363.703430 
z"/>
<path fill="#E4A354" opacity="1.000000" stroke="none" 
	d="
M128.781006,365.849701 
	C128.192764,366.085358 127.461784,366.043213 126.363991,365.989380 
	C126.877533,365.842438 127.757889,365.707153 128.781006,365.849701 
z"/>
<path fill="#EDA34B" opacity="1.000000" stroke="none" 
	d="
M147.268539,366.048767 
	C147.837555,365.769440 148.547058,365.822388 149.634476,366.188782 
	C150.026733,366.691895 150.041077,366.881592 150.077942,367.074463 
	C150.100433,367.077637 150.130432,367.113495 150.130432,367.113495 
	C149.223312,366.869354 148.316177,366.625214 147.268539,366.048767 
z"/>
<path fill="#EDA34B" opacity="1.000000" stroke="none" 
	d="
M156.800827,363.564636 
	C156.544830,363.835754 156.109421,363.926270 155.340698,364.045868 
	C155.545410,363.844604 156.083420,363.614319 156.800827,363.564636 
z"/>
<path fill="#EDA34B" opacity="1.000000" stroke="none" 
	d="
M166.919769,364.746124 
	C166.693375,364.880096 166.438705,364.703094 166.179565,364.199127 
	C166.401978,364.086731 166.640808,364.274384 166.919769,364.746124 
z"/>
<path fill="#FCCD87" opacity="1.000000" stroke="none" 
	d="
M150.883682,366.845001 
	C150.889954,367.127014 150.814972,367.385376 150.518616,367.760010 
	C150.378494,367.899963 150.210999,367.519287 150.170715,367.316406 
	C150.130432,367.113495 150.100433,367.077637 150.294128,367.051727 
	C150.487839,367.025818 150.883682,366.845001 150.883682,366.845001 
z"/>
<path fill="#F1EFF3" opacity="1.000000" stroke="none" 
	d="
M181.383514,317.863861 
	C181.383484,315.450470 181.383484,313.485779 181.383484,311.605133 
	C188.129807,310.484528 191.603470,312.007324 191.936447,316.107208 
	C192.233917,319.770020 190.242447,321.707092 186.737213,322.018890 
	C184.040512,322.258759 180.668854,323.141174 181.383514,317.863861 
z"/>
<path fill="#F7F6F8" opacity="1.000000" stroke="none" 
	d="
M410.836914,329.300171 
	C411.299744,333.974182 409.879791,336.963043 405.244202,337.499481 
	C401.555359,337.926331 398.369507,335.264038 397.998444,331.484741 
	C397.603699,327.464355 399.199036,324.481079 403.324280,323.741913 
	C407.258331,323.037018 410.187531,324.476013 410.836914,329.300171 
z"/>
<path fill="#F8F7F5" opacity="1.000000" stroke="none" 
	d="
M250.806534,260.457703 
	C254.204041,258.696564 257.479675,257.283875 260.919708,255.800293 
	C263.237640,261.693298 260.716675,263.787384 256.919617,264.646942 
	C253.921951,265.325409 250.626251,265.531036 250.806534,260.457703 
z"/>
<path fill="#F8F7F5" opacity="1.000000" stroke="none" 
	d="
M396.470459,259.654877 
	C399.865631,258.265503 403.015137,257.198395 406.164642,256.131287 
	C406.636780,256.592224 407.108948,257.053131 407.581085,257.514038 
	C406.886200,259.425781 406.725800,262.225372 405.371002,263.040985 
	C403.342377,264.262207 400.456177,264.422546 397.975708,264.286377 
	C397.315186,264.250153 396.804321,261.487885 396.470459,259.654877 
z"/>
<path fill="#F1EFF3" opacity="1.000000" stroke="none" 
	d="
M214.260803,334.172180 
	C217.186188,333.713715 219.769547,333.474792 224.002502,333.083344 
	C222.540436,335.570892 222.009094,337.706635 220.963333,337.998413 
	C218.768539,338.610657 216.303314,338.253510 213.949112,338.294342 
	C213.938995,336.993500 213.928894,335.692627 214.260803,334.172180 
z"/>
<path fill="#F8F7F5" opacity="1.000000" stroke="none" 
	d="
M226.131866,250.165665 
	C224.042191,250.167435 222.403000,250.167435 220.479553,250.167435 
	C220.537018,245.813416 222.706345,243.562943 226.333054,243.228317 
	C230.489548,242.844818 233.119827,245.028198 234.167435,250.163895 
	C231.368484,250.163895 228.975433,250.163895 226.131866,250.165665 
z"/>
<path fill="#F8F7F5" opacity="1.000000" stroke="none" 
	d="
M471.169495,247.825195 
	C470.773682,248.851593 470.323059,250.055008 469.824249,250.075333 
	C465.953461,250.232925 462.073395,250.162308 458.196198,250.162308 
	C457.872833,249.601181 457.549469,249.040039 457.226135,248.478912 
	C459.186279,246.719025 460.875580,244.178818 463.170135,243.382309 
	C466.602509,242.190811 469.536774,243.959503 471.169495,247.825195 
z"/>
<path fill="#FBFBFA" opacity="1.000000" stroke="none" 
	d="
M376.177124,334.841370 
	C373.748596,338.074677 370.915100,338.861084 367.641510,337.317444 
	C364.315247,335.749054 363.450684,332.805420 363.891113,329.411560 
	C364.397003,325.513153 366.873108,323.465759 370.643860,323.519073 
	C374.444641,323.572845 376.862366,325.739441 377.092560,329.666534 
	C377.185638,331.254883 376.638611,332.880707 376.177124,334.841370 
z"/>
<path fill="#F7F6F8" opacity="1.000000" stroke="none" 
	d="
M308.875275,333.906219 
	C307.338562,329.592590 308.145538,325.898438 311.964264,324.363312 
	C314.084229,323.511139 317.665649,324.078247 319.574982,325.433380 
	C322.499878,327.509399 322.586121,331.135345 320.924927,334.406494 
	C318.450531,339.279022 313.111755,339.186493 308.875275,333.906219 
z"/>
<path fill="#F19B34" opacity="1.000000" stroke="none" 
	d="
M150.791000,366.638916 
	C150.883682,366.845001 150.487839,367.025818 150.271637,367.048584 
	C150.041077,366.881592 150.026733,366.691895 149.990662,366.216980 
	C150.289139,365.986694 150.532272,366.153748 150.791000,366.638916 
z"/>
</svg>